<svg xmlns="http://www.w3.org/2000/svg" viewBox="0 0 24 24" fill="#FFFFFF" width="24px" height="24px">
    <path d="M19.14,12.94c0.04-0.3,0.06-0.61,0.06-0.94c0-0.32-0.02-0.64-0.07-0.94l2.03-1.58c0.18-0.14,0.23-0.41,0.12-0.61 l-1.92-3.32c-0.12-0.22-0.37-0.29-0.59-0.22l-2.39,0.96c-0.5-0.38-1.03-0.7-1.62-0.94L14.4,2.25C14.34,2.01,14.13,2,13.88,2 h-3.76c-0.25,0-0.46,0.01-0.53,0.25L9.2,4.85C8.61,5.09,8.08,5.41,7.58,5.79L5.19,4.83C4.97,4.76,4.72,4.83,4.6,5.05L2.68,8.37 c-0.11,0.2-0.06,0.47,0.12,0.61l2.03,1.58C4.78,10.99,4.76,11.31,4.76,11.63c0,0.32,0.02,0.64,0.07,0.94l-2.03,1.58 c-0.18,0.14-0.23,0.41-0.12,0.61l1.92,3.32c0.12,0.22,0.37,0.29,0.59,0.22l2.39-0.96c0.5,0.38,1.03,0.7,1.62,0.94l0.39,2.61 c0.07,0.24,0.28,0.25,0.53,0.25h3.76c0.25,0,0.46-0.01,0.53-0.25l0.39-2.61c0.59-0.24,1.12-0.56,1.62-0.94l2.39,0.96 c0.22,0.07,0.47,0,0.59-0.22l1.92-3.32c0.12-0.2,0.07-0.47-0.12-0.61L19.14,12.94z M12,15.63c-1.98,0-3.59-1.6-3.59-3.59 s1.6-3.59,3.59-3.59s3.59,1.6,3.59,3.59S13.98,15.63,12,15.63z"/>
</svg> 